<svg width="760" height="261" viewBox="0 0 760 261" fill="none" xmlns="http://www.w3.org/2000/svg">
<path fill-rule="evenodd" clip-rule="evenodd" d="M58.4766 108.157C37.7372 116.58 23.4657 131.145 20.7291 145.446C20.288 147.751 20.4211 149.416 20.8892 150.821C21.364 152.246 22.2521 153.614 23.6859 155.272C24.7224 156.471 26.889 157.817 29.1826 158.962C30.2635 159.503 31.2639 159.946 31.994 160.254C32.3577 160.407 32.6509 160.525 32.8492 160.604C32.9483 160.643 33.0235 160.672 33.0717 160.691L33.1233 160.711L33.1319 160.714C34.7548 161.323 35.5641 162.942 34.9388 164.33C34.3134 165.717 32.4903 166.348 30.867 165.739L31.9837 163.261C30.867 165.739 30.8675 165.739 30.867 165.739L30.8649 165.738L30.8621 165.737L30.8544 165.734L30.8305 165.725L30.7498 165.694C30.6818 165.668 30.5857 165.631 30.4648 165.583C30.2231 165.487 29.881 165.349 29.4639 165.173C28.6324 164.823 27.4889 164.316 26.2407 163.693C23.8761 162.511 20.6436 160.672 18.7166 158.443C17.0324 156.495 15.6305 154.483 14.8448 152.125C14.0524 149.746 13.9546 147.224 14.5135 144.303C17.6729 127.793 33.6946 112.061 55.6025 103.163C60.2525 101.275 66.3609 99.8159 71.1686 98.8398C73.6001 98.3461 75.7521 97.9656 77.2977 97.7082C78.0711 97.5794 78.6943 97.4811 79.1265 97.4147C79.3427 97.3815 79.5113 97.3563 79.6271 97.3391L79.7608 97.3195L79.7968 97.3143L79.81 97.3124C79.8104 97.3123 79.8117 97.3121 80.4597 100.021L79.8117 97.3121L79.8842 97.3018L79.9574 97.2944C86.8142 96.6051 93.2734 96.3679 99.797 97.3312C101.669 97.6076 103.798 98.2798 105.66 99.1105C107.45 99.9085 109.451 101.055 110.69 102.488C111.76 103.725 111.514 105.438 110.142 106.313C108.77 107.189 106.79 106.896 105.721 105.659C105.4 105.287 104.478 104.633 102.997 103.972C101.589 103.344 100.101 102.9 99.0237 102.741C93.3795 101.908 87.6176 102.081 81.0393 102.739L80.9577 102.751C80.8538 102.767 80.6978 102.79 80.4948 102.821C80.0886 102.884 79.4945 102.977 78.7528 103.101C77.268 103.348 75.1982 103.714 72.8634 104.188C68.1386 105.147 62.5369 106.508 58.4766 108.157Z" fill="#FF1493"/>
<path fill-rule="evenodd" clip-rule="evenodd" d="M34.5186 161.862C35.4977 163.174 35.2448 165.043 33.9537 166.038C31.7399 167.744 29.7536 171.247 28.6101 175.857C27.4863 180.388 27.2975 185.529 28.2487 190.033C29.2052 194.561 31.2252 198.091 34.196 199.998C37.0807 201.85 41.4864 202.568 48.1307 200.165C49.6573 199.613 51.3353 200.423 51.8787 201.974C52.4221 203.525 51.625 205.23 50.0984 205.782C42.317 208.596 35.9104 208.151 31.0617 205.038C26.2991 201.981 23.6646 196.744 22.5113 191.284C21.3527 185.798 21.5987 179.727 22.9199 174.4C24.2215 169.152 26.6904 164.152 30.4079 161.288C31.6991 160.293 33.5395 160.55 34.5186 161.862Z" fill="#FF1493"/>
<path fill-rule="evenodd" clip-rule="evenodd" d="M97.5316 207.262C97.6312 205.618 99.023 204.368 100.64 204.469C107.263 204.884 111.602 207.14 114.411 210.788C117.054 214.221 118.036 218.552 118.837 222.19C118.864 222.311 118.89 222.431 118.916 222.551C119.738 226.289 120.42 229.39 121.982 231.883C123.439 234.207 125.803 236.185 130.611 237.003C135.455 237.828 140.996 236.842 146.766 234.671C152.508 232.511 158.252 229.262 163.397 225.842C168.532 222.429 173.001 218.892 176.189 216.205C177.781 214.863 179.048 213.737 179.914 212.95C180.346 212.557 180.678 212.249 180.9 212.042C181.01 211.938 181.093 211.859 181.148 211.807L181.207 211.751L181.223 211.736C182.398 210.603 184.255 210.652 185.371 211.846C186.486 213.041 186.437 214.927 185.262 216.061L183.292 213.951C185.262 216.061 185.261 216.061 185.261 216.062L185.253 216.07L185.232 216.089L185.158 216.16C185.094 216.221 185 216.309 184.879 216.423C184.637 216.65 184.282 216.979 183.826 217.394C182.913 218.224 181.591 219.398 179.936 220.793C176.631 223.579 171.981 227.261 166.61 230.831C161.25 234.394 155.101 237.893 148.804 240.262C142.535 242.621 135.89 243.947 129.642 242.883C123.358 241.814 119.468 238.973 117.032 235.084C114.897 231.677 114.011 227.616 113.263 224.187C113.211 223.952 113.161 223.72 113.11 223.492C112.268 219.665 111.492 216.674 109.789 214.462C108.253 212.466 105.656 210.757 100.28 210.42C98.6624 210.319 97.432 208.905 97.5316 207.262Z" fill="#FF1493"/>
<path fill-rule="evenodd" clip-rule="evenodd" d="M55.4844 187.978C56.8819 188.808 57.3543 190.63 56.5412 192.051C56.5412 192.051 56.5412 192.051 56.5412 192.051C56.5409 192.051 56.5404 192.052 56.5397 192.053L56.5214 192.086C56.5028 192.12 56.4719 192.176 56.4303 192.255C56.3471 192.412 56.2214 192.656 56.0666 192.977C55.7566 193.622 55.333 194.572 54.9008 195.755C54.0303 198.137 53.158 201.374 53.0544 204.91C52.9515 208.424 53.6066 212.177 55.7294 215.728C57.8472 219.271 61.5623 222.843 67.959 225.775C81.0059 231.756 92.5121 231.36 100.231 228.224C108.198 224.987 111.302 219.417 110.315 215.071C109.951 213.467 110.935 211.866 112.514 211.496C114.093 211.126 115.668 212.126 116.033 213.73C117.98 222.302 111.549 230.046 102.41 233.76C93.0221 237.574 79.8505 237.767 65.5459 231.21C58.2668 227.874 53.5504 223.569 50.7138 218.823C47.8822 214.085 47.0599 209.137 47.189 204.733C47.3174 200.351 48.3866 196.453 49.3996 193.68C49.9091 192.285 50.4127 191.153 50.7945 190.36C50.9856 189.962 51.147 189.648 51.2643 189.427C51.323 189.316 51.3707 189.229 51.4058 189.165C51.4233 189.134 51.4377 189.108 51.4486 189.088L51.4625 189.064L51.4675 189.055L51.4695 189.052C51.4703 189.05 51.4711 189.049 53.9845 190.54L51.4711 189.049C52.2884 187.627 54.0852 187.148 55.4844 187.978Z" fill="#FF1493"/>
<path fill-rule="evenodd" clip-rule="evenodd" d="M236.767 169.209C235.31 168.488 234.842 166.783 235.721 165.4C238.901 160.397 242.009 155.009 243.154 149.378C244.269 143.895 243.539 138.092 238.766 132.114C236.769 129.614 235.155 127.089 233.692 124.674C233.241 123.929 232.81 123.205 232.388 122.496C231.416 120.862 230.494 119.313 229.491 117.79C226.685 113.53 223.521 109.932 218.185 107.293C214.959 105.698 209.556 104.869 203.349 104.929C197.223 104.989 190.77 105.909 185.701 107.462C183.819 108.038 181.309 108.956 179.218 109.753C178.183 110.147 177.271 110.503 176.618 110.761C176.292 110.89 176.03 110.994 175.852 111.065L175.648 111.147L175.596 111.168L175.581 111.174L175.529 111.195L175.477 111.214L175.256 111.296C175.114 111.348 174.913 111.422 174.674 111.511C174.195 111.689 173.569 111.922 172.972 112.148C172.469 112.338 172.012 112.514 171.684 112.645C171.382 112.832 171.043 112.976 170.675 113.065C170.612 113.08 170.491 113.108 170.347 113.131C170.277 113.142 170.144 113.161 169.977 113.17L169.97 113.171C169.87 113.176 169.42 113.201 168.897 113.053C168.615 112.972 168.04 112.767 167.558 112.238C166.99 111.615 166.803 110.819 166.93 110.081C167.036 109.46 167.337 109.021 167.488 108.824C167.657 108.602 167.824 108.446 167.92 108.362C168.221 108.098 168.52 107.939 168.561 107.917L168.565 107.915C168.816 107.779 169.129 107.651 169.275 107.591L169.284 107.587C169.704 107.416 170.322 107.178 170.929 106.948C171.546 106.714 172.189 106.475 172.675 106.294C172.919 106.204 173.124 106.128 173.269 106.075L173.448 106.009L173.474 105.998L173.69 105.911C173.878 105.837 174.148 105.729 174.485 105.596C175.158 105.33 176.097 104.963 177.163 104.557C179.274 103.753 181.966 102.765 184.082 102.117C189.884 100.339 197.005 99.3471 203.67 99.2825C210.253 99.2187 216.857 100.055 221.369 102.285C227.929 105.528 231.736 109.972 234.82 114.655C235.891 116.279 236.908 117.989 237.907 119.668C238.315 120.354 238.72 121.034 239.125 121.702C240.547 124.051 242.028 126.357 243.818 128.597C249.611 135.851 250.607 143.2 249.21 150.072C247.843 156.797 244.201 162.968 240.997 168.009C240.118 169.392 238.224 169.929 236.767 169.209Z" fill="#FF1493"/>
<path fill-rule="evenodd" clip-rule="evenodd" d="M106.448 104.469C108.029 104.829 109.696 103.844 110.169 102.269C110.33 101.735 111.133 100.438 113.043 98.5744C114.841 96.8213 117.309 94.8667 120.228 93.0047C126.105 89.2552 133.449 86.1057 140.368 85.5349C154.739 84.3494 172.828 87.473 178.512 105.123C178.997 106.632 180.67 107.387 182.248 106.81C183.826 106.233 184.711 104.542 184.225 103.034C177.293 81.5068 155.282 78.4686 140.263 79.7077C131.986 80.3905 123.629 84.069 117.202 88.1695C113.969 90.2324 111.135 92.4583 108.967 94.5721C106.912 96.5758 105.086 98.832 104.443 100.968C103.969 102.542 104.867 104.11 106.448 104.469Z" fill="#FF1493"/>
<path fill-rule="evenodd" clip-rule="evenodd" d="M175.933 208.366C176.75 206.908 178.544 206.352 179.94 207.124C184.567 209.682 189.529 214.796 194.447 220.339C196.357 222.491 198.266 224.715 200.186 226.951C203.374 230.665 206.591 234.413 209.883 237.916C215.15 243.521 220.194 248.026 224.852 250.225C227.144 251.307 229.188 251.754 231.015 251.614C232.789 251.479 234.568 250.777 236.389 249.182C237.642 248.085 239.487 248.194 240.511 249.425C241.534 250.656 241.348 252.544 240.095 253.641C237.349 256.045 234.353 257.329 231.203 257.57C228.106 257.806 225.077 257.02 222.206 255.664C216.537 252.988 210.89 247.803 205.571 242.143C202.215 238.572 198.823 234.623 195.562 230.825C193.662 228.613 191.806 226.453 190.028 224.449C185.035 218.822 180.657 214.435 176.98 212.402C175.584 211.63 175.115 209.823 175.933 208.366Z" fill="#FF1493"/>
<path fill-rule="evenodd" clip-rule="evenodd" d="M238.868 163.708C239.501 162.193 241.224 161.486 242.715 162.13C248.316 164.548 252.663 170.096 255.28 175.932C257.897 181.767 259.11 188.61 257.677 194.114C256.853 197.279 254.59 200.066 252.447 202.364C251.471 203.411 250.427 204.449 249.436 205.435C249.302 205.568 249.169 205.7 249.038 205.831C247.909 206.956 246.862 208.012 245.946 209.047C245.368 209.699 244.754 211.019 243.837 213.277C243.76 213.469 243.68 213.665 243.599 213.866C242.818 215.8 241.877 218.131 240.644 220.26C239.271 222.63 237.387 225.025 234.623 226.533C231.81 228.068 228.426 228.501 224.416 227.578C225.246 229.315 226.336 231.297 227.902 233.583C229.715 236.229 232.561 239.332 235.195 242.204C235.769 242.83 236.333 243.444 236.874 244.041C238.282 245.594 239.662 247.163 240.421 248.363C240.622 248.68 240.844 249.07 241.011 249.5C241.151 249.859 241.413 250.639 241.243 251.575C241.018 252.816 240.165 253.702 239.15 254.077C238.368 254.366 237.635 254.306 237.234 254.252C235.628 254.035 234.499 252.536 234.713 250.904C234.726 250.806 234.743 250.709 234.765 250.615C234.235 249.959 233.494 249.113 232.558 248.08C232.081 247.555 231.564 246.992 231.022 246.401C228.391 243.537 225.165 240.024 223.086 236.989C220.589 233.344 219.142 230.34 218.104 227.877C217.714 226.953 217.409 226.183 217.146 225.52C216.656 224.284 216.312 223.418 215.84 222.608C215.818 222.57 215.797 222.533 215.775 222.497C215.678 222.33 215.594 222.185 215.534 222.08C215.5 222.021 215.448 221.929 215.4 221.834C215.379 221.793 215.327 221.69 215.275 221.559C215.25 221.497 215.199 221.366 215.154 221.194L215.151 221.186C215.125 221.087 214.993 220.596 215.085 219.975C215.138 219.614 215.302 218.966 215.847 218.375C216.448 217.723 217.206 217.471 217.828 217.436C218.743 217.385 219.396 217.792 219.485 217.847C219.488 217.849 219.49 217.851 219.492 217.852C219.797 218.036 220.008 218.244 220.033 218.27C220.034 218.271 220.035 218.272 220.036 218.272C220.139 218.372 220.228 218.473 220.256 218.505L220.26 218.509C220.295 218.549 220.337 218.596 220.371 218.636L220.384 218.651C220.425 218.698 220.466 218.746 220.512 218.797C220.914 219.254 221.445 219.791 221.937 220.08C223.049 220.732 224.822 221.555 225.641 221.747C228.55 222.43 230.47 222.032 231.847 221.281C233.294 220.491 234.497 219.117 235.587 217.235C236.595 215.495 237.379 213.559 238.186 211.564C238.261 211.378 238.337 211.191 238.413 211.004C239.212 209.034 240.19 206.633 241.583 205.06C242.637 203.87 243.805 202.695 244.929 201.574C245.064 201.44 245.199 201.306 245.333 201.173C246.333 200.178 247.292 199.223 248.187 198.264C250.288 196.011 251.592 194.171 252.004 192.59C252.972 188.871 252.223 183.493 249.94 178.404C247.658 173.315 244.168 169.235 240.42 167.617C238.929 166.973 238.234 165.223 238.868 163.708ZM215.884 222.482C215.884 222.481 215.887 222.485 215.893 222.492C215.888 222.486 215.884 222.482 215.884 222.482Z" fill="#FF1493"/>
<path d="M316.816 193.097C310.928 193.097 305.467 191.988 300.432 189.769C295.397 187.465 291.045 184.436 287.376 180.681L293.776 173.257C296.763 176.415 300.261 178.975 304.272 180.937C308.368 182.815 312.592 183.753 316.944 183.753C322.491 183.753 326.8 182.516 329.872 180.041C332.944 177.481 334.48 174.153 334.48 170.057C334.48 165.791 333.157 162.719 330.512 160.841C327.867 158.879 324.539 157.001 320.528 155.209L308.496 149.961C304.485 148.34 300.645 145.865 296.976 142.537C293.307 139.209 291.472 134.473 291.472 128.329C291.472 121.929 293.947 116.639 298.896 112.457C303.931 108.191 310.245 106.057 317.84 106.057C322.789 106.057 327.397 107.039 331.664 109.001C336.016 110.879 339.685 113.353 342.672 116.425L336.912 123.337C334.352 120.863 331.493 118.943 328.336 117.577C325.264 116.127 321.765 115.401 317.84 115.401C313.147 115.401 309.349 116.511 306.448 118.729C303.632 120.948 302.224 123.935 302.224 127.689C302.224 131.7 303.717 134.687 306.704 136.649C309.691 138.612 312.848 140.276 316.176 141.641L328.08 146.761C332.944 148.895 337.04 151.625 340.368 154.953C343.696 158.196 345.36 162.932 345.36 169.161C345.36 175.817 342.8 181.492 337.68 186.185C332.645 190.793 325.691 193.097 316.816 193.097ZM360.871 191.561V100.425H371.239V162.121H371.623L398.119 129.353H409.767L388.903 154.313L412.583 191.561H401.063L382.887 161.609L371.239 175.177V191.561H360.871ZM429.622 116.553C427.574 116.553 425.825 115.913 424.374 114.633C423.009 113.353 422.326 111.732 422.326 109.769C422.326 107.721 423.009 106.1 424.374 104.905C425.825 103.625 427.574 102.985 429.622 102.985C431.67 102.985 433.377 103.625 434.742 104.905C436.193 106.1 436.918 107.721 436.918 109.769C436.918 111.732 436.193 113.353 434.742 114.633C433.377 115.913 431.67 116.553 429.622 116.553ZM424.246 191.561V129.353H434.742V191.561H424.246ZM466.882 193.097C459.458 193.097 455.746 188.404 455.746 179.017V100.425H466.242V179.785C466.242 182.857 467.223 184.393 469.186 184.393C469.954 184.393 470.722 184.308 471.49 184.137L472.898 192.073C471.362 192.756 469.357 193.097 466.882 193.097ZM499.507 193.097C492.083 193.097 488.371 188.404 488.371 179.017V100.425H498.867V179.785C498.867 182.857 499.848 184.393 501.811 184.393C502.579 184.393 503.347 184.308 504.115 184.137L505.523 192.073C503.987 192.756 501.982 193.097 499.507 193.097ZM532.644 147.401H546.724C560.292 147.401 567.076 141.983 567.076 131.145C567.076 125.684 565.327 121.844 561.828 119.625C558.329 117.321 553.295 116.169 546.724 116.169H532.644V147.401ZM532.644 191.561H522.02V107.593H548.26C556.879 107.593 563.919 109.343 569.38 112.841C574.927 116.34 577.7 122.441 577.7 131.145C577.7 137.716 575.951 142.964 572.452 146.889C569.039 150.815 564.473 153.503 558.756 154.953L580.132 191.561H568.1L547.876 156.105H532.644V191.561ZM610.779 184.649C613.766 184.649 616.582 183.924 619.227 182.473C621.872 181.023 624.688 178.975 627.675 176.329V159.049C617.264 160.329 610.011 162.292 605.915 164.937C601.819 167.497 599.771 170.74 599.771 174.665C599.771 178.164 600.838 180.724 602.971 182.345C605.104 183.881 607.707 184.649 610.779 184.649ZM607.707 193.097C602.502 193.097 598.15 191.561 594.651 188.489C591.238 185.332 589.531 180.98 589.531 175.433C589.531 168.607 592.56 163.401 598.619 159.817C604.763 156.148 614.448 153.588 627.675 152.137C627.675 148.212 626.822 144.628 625.115 141.385C623.408 138.143 619.995 136.521 614.875 136.521C611.291 136.521 607.92 137.204 604.763 138.569C601.606 139.935 598.79 141.471 596.315 143.177L592.219 135.881C595.12 134.004 598.662 132.212 602.843 130.505C607.11 128.713 611.718 127.817 616.667 127.817C624.262 127.817 629.766 130.164 633.179 134.857C636.592 139.465 638.299 145.652 638.299 153.417V191.561H629.595L628.699 184.137H628.315C625.328 186.527 622.128 188.617 618.715 190.409C615.302 192.201 611.632 193.097 607.707 193.097ZM651.343 191.561V185.929L684.111 137.929H654.927V129.353H697.423V134.985L664.655 182.985H698.447V191.561H651.343ZM712.246 191.561V129.353H720.95L721.846 140.617H722.23C724.363 136.692 726.966 133.577 730.038 131.273C733.11 128.969 736.395 127.817 739.894 127.817C742.369 127.817 744.587 128.244 746.55 129.097L744.502 138.313C743.478 137.972 742.539 137.716 741.686 137.545C740.833 137.375 739.766 137.289 738.486 137.289C735.841 137.289 733.067 138.356 730.166 140.489C727.35 142.623 724.875 146.335 722.742 151.625V191.561H712.246Z" fill="#FF1493"/>
<path d="M90 187.206C93.7957 187.206 97.5914 187.206 101.387 187.206C107.079 187.206 112.526 189.458 118.161 190.358C129.994 192.249 141.42 194.523 153.095 189.486C165.162 184.281 176.719 174.004 186.246 160.509C191.796 152.647 196.99 143.884 203 137.098" stroke="#FF1493" stroke-width="4" stroke-linecap="round"/>
<path d="M199.262 22.1713L172.448 89.7276M143.767 1.00009L143.767 77.9926" stroke="#FF1493" stroke-width="4"/>
<path d="M91.6659 31.244L119.458 89.7635" stroke="#FF1493" stroke-width="4"/>
<path d="M182 137.922C189.381 136.697 196.761 135.473 204.142 134.249C207.146 133.75 205.192 135.861 204.44 138.761C202.311 146.968 205.267 155.971 206.64 164.244" stroke="#FF1493" stroke-width="4" stroke-linecap="round"/>
</svg>
